<svg xmlns="http://www.w3.org/2000/svg" width="1300" height="1048.0" viewBox="0 0 1300 1048.0" font-family="-apple-system,'Segoe UI',system-ui,Roboto,'Helvetica Neue',Arial,sans-serif"><rect x="0.5" y="0.5" width="1299" height="1047.0" rx="12" fill="#1a1a19" stroke="rgba(255,255,255,0.10)"/><text x="32.0" y="40.0" font-size="15.5" fill="#ffffff" font-weight="600" text-anchor="start">Le cycle produit augmenté par l'IA : cinq skills, du besoin au code livré</text><text x="32.0" y="61.0" font-size="12.5" fill="#c3c2b7" font-weight="normal" text-anchor="start">L'agent propose, la règle prouve, l'humain valide · chaque skill part des standards de l'équipe, parle aux outils par MCP et produit l'artefact qui alimente le skill suivant</text><rect x="166.0" y="82.0" width="212.4" height="24.0" rx="6" fill="#2565bd"/><text x="272.2" y="98.5" font-size="11" fill="#ffffff" font-weight="600" text-anchor="middle" letter-spacing="0.08em">RESPONSABLE PRODUIT</text><rect x="388.4" y="82.0" width="434.8" height="24.0" rx="6" fill="#2565bd"/><text x="605.8" y="98.5" font-size="11" fill="#ffffff" font-weight="600" text-anchor="middle" letter-spacing="0.08em">DESIGNER</text><rect x="833.2" y="82.0" width="434.8" height="24.0" rx="6" fill="#2565bd"/><text x="1050.6" y="98.5" font-size="11" fill="#ffffff" font-weight="600" text-anchor="middle" letter-spacing="0.08em">DÉVELOPPEUR</text><text x="168.0" y="132.0" font-size="15.5" fill="#ffffff" font-weight="600" text-anchor="start">/plan</text><text x="168.0" y="149.0" font-size="11.5" fill="#c3c2b7" font-weight="normal" text-anchor="start">refinement du ticket</text><text x="390.4" y="132.0" font-size="15.5" fill="#ffffff" font-weight="600" text-anchor="start">/prototype</text><text x="390.4" y="149.0" font-size="11.5" fill="#c3c2b7" font-weight="normal" text-anchor="start">du ticket au prototype</text><text x="612.8" y="132.0" font-size="15.5" fill="#ffffff" font-weight="600" text-anchor="start">/maquette</text><text x="612.8" y="149.0" font-size="11.5" fill="#c3c2b7" font-weight="normal" text-anchor="start">du prototype validé à Figma</text><text x="835.2" y="132.0" font-size="15.5" fill="#ffffff" font-weight="600" text-anchor="start">/plan-tech</text><text x="835.2" y="149.0" font-size="11.5" fill="#c3c2b7" font-weight="normal" text-anchor="start">plan et revue d'impact</text><text x="1057.6" y="132.0" font-size="15.5" fill="#ffffff" font-weight="600" text-anchor="start">/implementation</text><text x="1057.6" y="149.0" font-size="11.5" fill="#c3c2b7" font-weight="normal" text-anchor="start">code et tests</text><rect x="32.0" y="162.0" width="122.0" height="207.0" rx="10" fill="#2565bd"/><text x="93.0" y="263.5" font-size="12.5" fill="#ffffff" font-weight="600" text-anchor="middle">L'agent</text><text x="93.0" y="280.5" font-size="11" fill="#ffffff" font-weight="normal" text-anchor="middle">propose</text><rect x="166.0" y="162.0" width="212.4" height="207.0" rx="8" fill="#20242c"/><circle cx="181.0" cy="181.0" r="2" fill="#c3c2b7"/><text x="189.0" y="185.0" font-size="12" fill="#ffffff" font-weight="normal" text-anchor="start">Challenge la précision du</text><text x="189.0" y="200.5" font-size="12" fill="#ffffff" font-weight="normal" text-anchor="start">besoin, pose ses</text><text x="189.0" y="216.0" font-size="12" fill="#ffffff" font-weight="normal" text-anchor="start">questions</text><circle cx="181.0" cy="227.5" r="2" fill="#c3c2b7"/><text x="189.0" y="231.5" font-size="12" fill="#ffffff" font-weight="normal" text-anchor="start">Rédige le ticket au</text><text x="189.0" y="247.0" font-size="12" fill="#ffffff" font-weight="normal" text-anchor="start">standard de l'équipe</text><circle cx="181.0" cy="258.5" r="2" fill="#c3c2b7"/><text x="189.0" y="262.5" font-size="12" fill="#ffffff" font-weight="normal" text-anchor="start">Propose et complète les</text><text x="189.0" y="278.0" font-size="12" fill="#ffffff" font-weight="normal" text-anchor="start">critères d'acceptation</text><rect x="388.4" y="162.0" width="212.4" height="207.0" rx="8" fill="#20242c"/><circle cx="403.4" cy="181.0" r="2" fill="#c3c2b7"/><text x="411.4" y="185.0" font-size="12" fill="#ffffff" font-weight="normal" text-anchor="start">Lit le ticket</text><circle cx="403.4" cy="196.5" r="2" fill="#c3c2b7"/><text x="411.4" y="200.5" font-size="12" fill="#ffffff" font-weight="normal" text-anchor="start">Génère un prototype selon</text><text x="411.4" y="216.0" font-size="12" fill="#ffffff" font-weight="normal" text-anchor="start">les standards UX et UI,</text><text x="411.4" y="231.5" font-size="12" fill="#ffffff" font-weight="normal" text-anchor="start">en composants DSFR</text><rect x="610.8" y="162.0" width="212.4" height="207.0" rx="8" fill="#20242c"/><circle cx="625.8" cy="181.0" r="2" fill="#c3c2b7"/><text x="633.8" y="185.0" font-size="12" fill="#ffffff" font-weight="normal" text-anchor="start">Pousse le prototype dans</text><text x="633.8" y="200.5" font-size="12" fill="#ffffff" font-weight="normal" text-anchor="start">Figma</text><circle cx="625.8" cy="212.0" r="2" fill="#c3c2b7"/><text x="633.8" y="216.0" font-size="12" fill="#ffffff" font-weight="normal" text-anchor="start">Génère les maquettes</text><text x="633.8" y="231.5" font-size="12" fill="#ffffff" font-weight="normal" text-anchor="start">selon les standards UI,</text><text x="633.8" y="247.0" font-size="12" fill="#ffffff" font-weight="normal" text-anchor="start">en composants DSFR</text><text x="633.8" y="262.5" font-size="12" fill="#ffffff" font-weight="normal" text-anchor="start">officiels</text><circle cx="625.8" cy="274.0" r="2" fill="#c3c2b7"/><text x="633.8" y="278.0" font-size="12" fill="#ffffff" font-weight="normal" text-anchor="start">Respect strict du design</text><text x="633.8" y="293.5" font-size="12" fill="#ffffff" font-weight="normal" text-anchor="start">system</text><rect x="833.2" y="162.0" width="212.4" height="207.0" rx="8" fill="#20242c"/><circle cx="848.2" cy="181.0" r="2" fill="#c3c2b7"/><text x="856.2" y="185.0" font-size="12" fill="#ffffff" font-weight="normal" text-anchor="start">Lit le ticket et, au</text><text x="856.2" y="200.5" font-size="12" fill="#ffffff" font-weight="normal" text-anchor="start">besoin, les maquettes</text><text x="856.2" y="216.0" font-size="12" fill="#ffffff" font-weight="normal" text-anchor="start">dans Figma</text><circle cx="848.2" cy="227.5" r="2" fill="#c3c2b7"/><text x="856.2" y="231.5" font-size="12" fill="#ffffff" font-weight="normal" text-anchor="start">Lit le code, écrit le</text><text x="856.2" y="247.0" font-size="12" fill="#ffffff" font-weight="normal" text-anchor="start">plan d'implémentation aux</text><text x="856.2" y="262.5" font-size="12" fill="#ffffff" font-weight="normal" text-anchor="start">standards de l'équipe</text><circle cx="848.2" cy="274.0" r="2" fill="#c3c2b7"/><text x="856.2" y="278.0" font-size="12" fill="#ffffff" font-weight="normal" text-anchor="start">Évalue l'impact prévu sur</text><text x="856.2" y="293.5" font-size="12" fill="#ffffff" font-weight="normal" text-anchor="start">le code</text><rect x="1055.6" y="162.0" width="212.4" height="207.0" rx="8" fill="#20242c"/><circle cx="1070.6" cy="181.0" r="2" fill="#c3c2b7"/><text x="1078.6" y="185.0" font-size="12" fill="#ffffff" font-weight="normal" text-anchor="start">Implémente phase par</text><text x="1078.6" y="200.5" font-size="12" fill="#ffffff" font-weight="normal" text-anchor="start">phase</text><circle cx="1070.6" cy="212.0" r="2" fill="#c3c2b7"/><text x="1078.6" y="216.0" font-size="12" fill="#ffffff" font-weight="normal" text-anchor="start">Agents codeur et testeur</text><text x="1078.6" y="231.5" font-size="12" fill="#ffffff" font-weight="normal" text-anchor="start">séparés</text><circle cx="1070.6" cy="243.0" r="2" fill="#c3c2b7"/><text x="1078.6" y="247.0" font-size="12" fill="#ffffff" font-weight="normal" text-anchor="start">Pose le code et les tests</text><text x="1078.6" y="262.5" font-size="12" fill="#ffffff" font-weight="normal" text-anchor="start">: unitaires, intégration,</text><text x="1078.6" y="278.0" font-size="12" fill="#ffffff" font-weight="normal" text-anchor="start">e2e</text><circle cx="1070.6" cy="289.5" r="2" fill="#c3c2b7"/><text x="1078.6" y="293.5" font-size="12" fill="#ffffff" font-weight="normal" text-anchor="start">S'arrête si un test casse</text><text x="1078.6" y="309.0" font-size="12" fill="#ffffff" font-weight="normal" text-anchor="start">sans l'avoir prévu dans</text><text x="1078.6" y="324.5" font-size="12" fill="#ffffff" font-weight="normal" text-anchor="start">la revue d'impact</text><circle cx="1070.6" cy="336.0" r="2" fill="#c3c2b7"/><text x="1078.6" y="340.0" font-size="12" fill="#ffffff" font-weight="normal" text-anchor="start">Passe la quality gate</text><text x="1078.6" y="355.5" font-size="12" fill="#ffffff" font-weight="normal" text-anchor="start">avant commit</text><rect x="32.0" y="379.0" width="122.0" height="83.0" rx="10" fill="#fab219"/><text x="93.0" y="418.5" font-size="12.5" fill="#0b0b0b" font-weight="600" text-anchor="middle">L'humain</text><text x="93.0" y="435.5" font-size="11" fill="#0b0b0b" font-weight="normal" text-anchor="middle">décide</text><rect x="166.0" y="379.0" width="212.4" height="83.0" rx="8" fill="#2a2418"/><circle cx="181.0" cy="398.0" r="2" fill="#c3c2b7"/><text x="189.0" y="402.0" font-size="12" fill="#ffffff" font-weight="normal" text-anchor="start">Répond aux questions de</text><text x="189.0" y="417.5" font-size="12" fill="#ffffff" font-weight="normal" text-anchor="start">l'agent</text><circle cx="181.0" cy="429.0" r="2" fill="#c3c2b7"/><text x="189.0" y="433.0" font-size="12" fill="#ffffff" font-weight="normal" text-anchor="start">Valide le ticket et ses</text><text x="189.0" y="448.5" font-size="12" fill="#ffffff" font-weight="normal" text-anchor="start">critères d'acceptation</text><rect x="388.4" y="379.0" width="212.4" height="83.0" rx="8" fill="#2a2418"/><circle cx="403.4" cy="398.0" r="2" fill="#c3c2b7"/><text x="411.4" y="402.0" font-size="12" fill="#ffffff" font-weight="normal" text-anchor="start">Montre le prototype aux</text><text x="411.4" y="417.5" font-size="12" fill="#ffffff" font-weight="normal" text-anchor="start">utilisateurs</text><circle cx="403.4" cy="429.0" r="2" fill="#c3c2b7"/><text x="411.4" y="433.0" font-size="12" fill="#ffffff" font-weight="normal" text-anchor="start">Recueille leurs retours,</text><text x="411.4" y="448.5" font-size="12" fill="#ffffff" font-weight="normal" text-anchor="start">itère</text><rect x="610.8" y="379.0" width="212.4" height="83.0" rx="8" fill="#2a2418"/><circle cx="625.8" cy="398.0" r="2" fill="#c3c2b7"/><text x="633.8" y="402.0" font-size="12" fill="#ffffff" font-weight="normal" text-anchor="start">Valide les maquettes</text><rect x="833.2" y="379.0" width="212.4" height="83.0" rx="8" fill="#2a2418"/><circle cx="848.2" cy="398.0" r="2" fill="#c3c2b7"/><text x="856.2" y="402.0" font-size="12" fill="#ffffff" font-weight="normal" text-anchor="start">Tranche les choix</text><text x="856.2" y="417.5" font-size="12" fill="#ffffff" font-weight="normal" text-anchor="start">techniques quand l'agent</text><text x="856.2" y="433.0" font-size="12" fill="#ffffff" font-weight="normal" text-anchor="start">le demande</text><circle cx="848.2" cy="444.5" r="2" fill="#c3c2b7"/><text x="856.2" y="448.5" font-size="12" fill="#ffffff" font-weight="normal" text-anchor="start">Valide le plan</text><rect x="1055.6" y="379.0" width="212.4" height="83.0" rx="8" fill="#2a2418"/><circle cx="1070.6" cy="398.0" r="2" fill="#c3c2b7"/><text x="1078.6" y="402.0" font-size="12" fill="#ffffff" font-weight="normal" text-anchor="start">Choisit l'approche (test</text><text x="1078.6" y="417.5" font-size="12" fill="#ffffff" font-weight="normal" text-anchor="start">first, acceptance first,</text><text x="1078.6" y="433.0" font-size="12" fill="#ffffff" font-weight="normal" text-anchor="start">code first)</text><circle cx="1070.6" cy="444.5" r="2" fill="#c3c2b7"/><text x="1078.6" y="448.5" font-size="12" fill="#ffffff" font-weight="normal" text-anchor="start">Relit avant de commiter</text><rect x="32.0" y="472.0" width="122.0" height="114.0" rx="10" fill="#2c2c2a"/><text x="93.0" y="527.0" font-size="12.5" fill="#ffffff" font-weight="600" text-anchor="middle">Contexte</text><text x="93.0" y="544.0" font-size="11" fill="#ffffff" font-weight="normal" text-anchor="middle">les standards</text><rect x="166.0" y="472.0" width="212.4" height="114.0" rx="8" fill="#1a1a19" stroke="#2c2c2a" stroke-width="1"/><circle cx="181.0" cy="491.0" r="2" fill="#c3c2b7"/><text x="189.0" y="495.0" font-size="12" fill="#ffffff" font-weight="normal" text-anchor="start">Skill de challenge des</text><text x="189.0" y="510.5" font-size="12" fill="#ffffff" font-weight="normal" text-anchor="start">imprécisions</text><circle cx="181.0" cy="522.0" r="2" fill="#c3c2b7"/><text x="189.0" y="526.0" font-size="12" fill="#ffffff" font-weight="normal" text-anchor="start">Standard de ticket de</text><text x="189.0" y="541.5" font-size="12" fill="#ffffff" font-weight="normal" text-anchor="start">l'équipe</text><circle cx="181.0" cy="553.0" r="2" fill="#c3c2b7"/><text x="189.0" y="557.0" font-size="12" fill="#ffffff" font-weight="normal" text-anchor="start">Règles de rédaction des</text><text x="189.0" y="572.5" font-size="12" fill="#ffffff" font-weight="normal" text-anchor="start">critères d'acceptation</text><rect x="388.4" y="472.0" width="212.4" height="114.0" rx="8" fill="#1a1a19" stroke="#2c2c2a" stroke-width="1"/><circle cx="403.4" cy="491.0" r="2" fill="#c3c2b7"/><text x="411.4" y="495.0" font-size="12" fill="#ffffff" font-weight="normal" text-anchor="start">Standards UX et UI</text><rect x="610.8" y="472.0" width="212.4" height="114.0" rx="8" fill="#1a1a19" stroke="#2c2c2a" stroke-width="1"/><circle cx="625.8" cy="491.0" r="2" fill="#c3c2b7"/><text x="633.8" y="495.0" font-size="12" fill="#ffffff" font-weight="normal" text-anchor="start">Consigne : récupérer les</text><text x="633.8" y="510.5" font-size="12" fill="#ffffff" font-weight="normal" text-anchor="start">composants DSFR officiels</text><text x="633.8" y="526.0" font-size="12" fill="#ffffff" font-weight="normal" text-anchor="start">dans les maquettes</text><rect x="833.2" y="472.0" width="212.4" height="114.0" rx="8" fill="#1a1a19" stroke="#2c2c2a" stroke-width="1"/><circle cx="848.2" cy="491.0" r="2" fill="#c3c2b7"/><text x="856.2" y="495.0" font-size="12" fill="#ffffff" font-weight="normal" text-anchor="start">Standards de</text><text x="856.2" y="510.5" font-size="12" fill="#ffffff" font-weight="normal" text-anchor="start">développement</text><circle cx="848.2" cy="522.0" r="2" fill="#c3c2b7"/><text x="856.2" y="526.0" font-size="12" fill="#ffffff" font-weight="normal" text-anchor="start">Lecture du code</text><circle cx="848.2" cy="537.5" r="2" fill="#c3c2b7"/><text x="856.2" y="541.5" font-size="12" fill="#ffffff" font-weight="normal" text-anchor="start">Standards de sécurité (au</text><text x="856.2" y="557.0" font-size="12" fill="#ffffff" font-weight="normal" text-anchor="start">besoin)</text><rect x="1055.6" y="472.0" width="212.4" height="114.0" rx="8" fill="#1a1a19" stroke="#2c2c2a" stroke-width="1"/><circle cx="1070.6" cy="491.0" r="2" fill="#c3c2b7"/><text x="1078.6" y="495.0" font-size="12" fill="#ffffff" font-weight="normal" text-anchor="start">Revue d'impact prévu sur</text><text x="1078.6" y="510.5" font-size="12" fill="#ffffff" font-weight="normal" text-anchor="start">le code</text><circle cx="1070.6" cy="522.0" r="2" fill="#c3c2b7"/><text x="1078.6" y="526.0" font-size="12" fill="#ffffff" font-weight="normal" text-anchor="start">Plan d'implémentation</text><circle cx="1070.6" cy="537.5" r="2" fill="#c3c2b7"/><text x="1078.6" y="541.5" font-size="12" fill="#ffffff" font-weight="normal" text-anchor="start">Maquette au besoin</text><rect x="32.0" y="596.0" width="122.0" height="70.0" rx="10" fill="#2c2c2a"/><text x="93.0" y="629.0" font-size="12.5" fill="#ffffff" font-weight="600" text-anchor="middle">MCP</text><text x="93.0" y="646.0" font-size="11" fill="#ffffff" font-weight="normal" text-anchor="middle">outils branchés</text><rect x="166.0" y="596.0" width="212.4" height="70.0" rx="8" fill="#1a1a19" stroke="#2c2c2a" stroke-width="1"/><rect x="178.0" y="608.0" width="46.8" height="20.0" rx="10" fill="#1a1a19" stroke="#3987e5" stroke-width="1"/><text x="201.4" y="622.0" font-size="11.5" fill="#3987e5" font-weight="600" text-anchor="middle">Jira</text><rect x="388.4" y="596.0" width="212.4" height="70.0" rx="8" fill="#1a1a19" stroke="#2c2c2a" stroke-width="1"/><rect x="400.4" y="608.0" width="46.8" height="20.0" rx="10" fill="#1a1a19" stroke="#3987e5" stroke-width="1"/><text x="423.8" y="622.0" font-size="11.5" fill="#3987e5" font-weight="600" text-anchor="middle">DSFR</text><rect x="610.8" y="596.0" width="212.4" height="70.0" rx="8" fill="#1a1a19" stroke="#2c2c2a" stroke-width="1"/><rect x="622.8" y="608.0" width="54.0" height="20.0" rx="10" fill="#1a1a19" stroke="#3987e5" stroke-width="1"/><text x="649.8" y="622.0" font-size="11.5" fill="#3987e5" font-weight="600" text-anchor="middle">Figma</text><rect x="833.2" y="596.0" width="212.4" height="70.0" rx="8" fill="#1a1a19" stroke="#2c2c2a" stroke-width="1"/><rect x="845.2" y="608.0" width="46.8" height="20.0" rx="10" fill="#1a1a19" stroke="#3987e5" stroke-width="1"/><text x="868.6" y="622.0" font-size="11.5" fill="#3987e5" font-weight="600" text-anchor="middle">Jira</text><rect x="898.0" y="608.0" width="54.0" height="20.0" rx="10" fill="#1a1a19" stroke="#3987e5" stroke-width="1"/><text x="925.0" y="622.0" font-size="11.5" fill="#3987e5" font-weight="600" text-anchor="middle">Figma</text><rect x="958.0" y="608.0" width="46.8" height="20.0" rx="10" fill="#1a1a19" stroke="#3987e5" stroke-width="1"/><text x="981.4" y="622.0" font-size="11.5" fill="#3987e5" font-weight="600" text-anchor="middle">DSFR</text><rect x="1055.6" y="596.0" width="212.4" height="70.0" rx="8" fill="#1a1a19" stroke="#2c2c2a" stroke-width="1"/><rect x="1067.6" y="608.0" width="46.8" height="20.0" rx="10" fill="#1a1a19" stroke="#3987e5" stroke-width="1"/><text x="1091.0" y="622.0" font-size="11.5" fill="#3987e5" font-weight="600" text-anchor="middle">Jira</text><rect x="1120.4" y="608.0" width="54.0" height="20.0" rx="10" fill="#1a1a19" stroke="#3987e5" stroke-width="1"/><text x="1147.4" y="622.0" font-size="11.5" fill="#3987e5" font-weight="600" text-anchor="middle">Figma</text><rect x="1180.4" y="608.0" width="46.8" height="20.0" rx="10" fill="#1a1a19" stroke="#3987e5" stroke-width="1"/><text x="1203.8" y="622.0" font-size="11.5" fill="#3987e5" font-weight="600" text-anchor="middle">DSFR</text><rect x="1067.6" y="634.0" width="90.0" height="20.0" rx="10" fill="#1a1a19" stroke="#3987e5" stroke-width="1"/><text x="1112.6" y="648.0" font-size="11.5" fill="#3987e5" font-weight="600" text-anchor="middle">Playwright</text><rect x="32.0" y="676.0" width="122.0" height="67.5" rx="10" fill="#123f77"/><text x="93.0" y="707.8" font-size="12.5" fill="#ffffff" font-weight="600" text-anchor="middle">Sortie</text><text x="93.0" y="724.8" font-size="11" fill="#ffffff" font-weight="normal" text-anchor="middle">l'artefact</text><path d="M166.0,676.0 L376.4,676.0 L388.4,709.8 L376.4,743.5 L166.0,743.5 Z" fill="#2565bd" stroke="#1a1a19" stroke-width="1"/><text x="178.0" y="699.0" font-size="12" fill="#ffffff" font-weight="600" text-anchor="start">Ticket Jira précis, au</text><text x="178.0" y="714.5" font-size="12" fill="#ffffff" font-weight="600" text-anchor="start">standard, avec ses</text><text x="178.0" y="730.0" font-size="12" fill="#ffffff" font-weight="600" text-anchor="start">critères d'acceptation</text><path d="M386.4,676.0 L598.8,676.0 L610.8,709.8 L598.8,743.5 L386.4,743.5 L398.4,709.8 Z" fill="#2565bd" stroke="#1a1a19" stroke-width="1"/><text x="410.4" y="706.8" font-size="12" fill="#ffffff" font-weight="600" text-anchor="start">Prototype DSFR, montré</text><text x="410.4" y="722.2" font-size="12" fill="#ffffff" font-weight="600" text-anchor="start">aux utilisateurs</text><path d="M608.8,676.0 L821.2,676.0 L833.2,709.8 L821.2,743.5 L608.8,743.5 L620.8,709.8 Z" fill="#2565bd" stroke="#1a1a19" stroke-width="1"/><text x="632.8" y="699.0" font-size="12" fill="#ffffff" font-weight="600" text-anchor="start">Maquettes Figma du</text><text x="632.8" y="714.5" font-size="12" fill="#ffffff" font-weight="600" text-anchor="start">prototype validé,</text><text x="632.8" y="730.0" font-size="12" fill="#ffffff" font-weight="600" text-anchor="start">conformes DSFR</text><path d="M831.2,676.0 L1043.6,676.0 L1055.6,709.8 L1043.6,743.5 L831.2,743.5 L843.2,709.8 Z" fill="#2565bd" stroke="#1a1a19" stroke-width="1"/><text x="855.2" y="699.0" font-size="12" fill="#ffffff" font-weight="600" text-anchor="start">Revue d'impact prévu sur</text><text x="855.2" y="714.5" font-size="12" fill="#ffffff" font-weight="600" text-anchor="start">le code + plan</text><text x="855.2" y="730.0" font-size="12" fill="#ffffff" font-weight="600" text-anchor="start">d'implémentation</text><path d="M1053.6,676.0 L1256.0,676.0 L1268.0,709.8 L1256.0,743.5 L1053.6,743.5 L1065.6,709.8 Z" fill="#2565bd" stroke="#1a1a19" stroke-width="1"/><text x="1077.6" y="706.8" font-size="12" fill="#ffffff" font-weight="600" text-anchor="start">Code et tests, prêts</text><text x="1077.6" y="722.2" font-size="12" fill="#ffffff" font-weight="600" text-anchor="start">pour la CI</text><rect x="32.0" y="761.5" width="122.0" height="202.5" rx="10" fill="#006300"/><text x="93.0" y="852.8" font-size="12.5" fill="#ffffff" font-weight="600" text-anchor="middle">Soutiens à la</text><text x="93.0" y="868.8" font-size="12.5" fill="#ffffff" font-weight="600" text-anchor="middle">production</text><text x="93.0" y="885.8" font-size="11" fill="#ffffff" font-weight="normal" text-anchor="middle">vérifient le code</text><rect x="1055.6" y="761.5" width="212.4" height="96.0" rx="8" fill="#1f271f" stroke="#0ca30c" stroke-width="1"/><text x="1067.6" y="781.5" font-size="10.5" fill="#0ca30c" font-weight="600" text-anchor="start" letter-spacing="0.06em">PENDANT /IMPLEMENTATION</text><text x="1067.6" y="801.5" font-size="12" fill="#ffffff" font-weight="normal" text-anchor="start">IDE : ESLint</text><text x="1067.6" y="817.0" font-size="12" fill="#ffffff" font-weight="normal" text-anchor="start">Quality gate avant commit :</text><text x="1067.6" y="832.5" font-size="12" fill="#ffffff" font-weight="normal" text-anchor="start">RGAA, standards de qualité,</text><text x="1067.6" y="848.0" font-size="12" fill="#ffffff" font-weight="normal" text-anchor="start">build sans erreur</text><line x1="1073.6" y1="860.5" x2="1073.6" y2="874.5" stroke="#0ca30c" stroke-width="2"/><path d="M1073.6,881.5 l-5,-8 h10 z" fill="#0ca30c"/><text x="1085.6" y="874.5" font-size="11" fill="#0ca30c" font-weight="600" text-anchor="start">commit</text><rect x="1055.6" y="883.5" width="212.4" height="80.5" rx="8" fill="#1f271f" stroke="#0ca30c" stroke-width="1"/><text x="1067.6" y="903.5" font-size="10.5" fill="#0ca30c" font-weight="600" text-anchor="start" letter-spacing="0.06em">APRÈS LE COMMIT</text><text x="1067.6" y="923.5" font-size="12" fill="#ffffff" font-weight="normal" text-anchor="start">CI/CD : Sonar, pré-audit</text><text x="1067.6" y="939.0" font-size="12" fill="#ffffff" font-weight="normal" text-anchor="start">RGAA poussé, revue de code</text><text x="1067.6" y="954.5" font-size="12" fill="#ffffff" font-weight="normal" text-anchor="start">supplémentaire au besoin</text><text x="32.0" y="990.0" font-size="11.5" fill="#898781" font-weight="normal" text-anchor="start">Skill : commande (/plan, /prototype…) lancée dans le harness de l'équipe, OpenCode Desktop + Albert ou Claude Code + Bedrock · MCP : connecteur standard entre l'agent et un outil (Jira, Figma, DSFR, Playwright)</text><text x="32.0" y="1007.0" font-size="11.5" fill="#898781" font-weight="normal" text-anchor="start">Le ticket Jira est le fil conducteur : produit par /plan, lu par /prototype, /plan-tech et /implementation</text><text x="32.0" y="1024.0" font-size="11.5" fill="#898781" font-weight="normal" text-anchor="start">Cible : des soutiens à la production aussi pour le produit (Definition of Ready outillée) et le design (audit DSFR / RGAA), paliers 2 et 3 de la checklist de déploiement</text></svg>
