<svg xmlns="http://www.w3.org/2000/svg" width="1120" height="1082" viewBox="0 0 1120 1082" font-family="-apple-system,'Segoe UI',system-ui,Roboto,'Helvetica Neue',Arial,sans-serif"><defs><marker id="arr-implementation-n" viewBox="0 0 10 10" refX="9" refY="5" markerWidth="7" markerHeight="7" orient="auto"><path d="M0,0 L10,5 L0,10 z" fill="#c3c2b7"/></marker><marker id="arr-implementation-ok" viewBox="0 0 10 10" refX="9" refY="5" markerWidth="7" markerHeight="7" orient="auto"><path d="M0,0 L10,5 L0,10 z" fill="#0ca30c"/></marker><marker id="arr-implementation-ko" viewBox="0 0 10 10" refX="9" refY="5" markerWidth="7" markerHeight="7" orient="auto"><path d="M0,0 L10,5 L0,10 z" fill="#f07070"/></marker><marker id="arr-implementation-amb" viewBox="0 0 10 10" refX="9" refY="5" markerWidth="7" markerHeight="7" orient="auto"><path d="M0,0 L10,5 L0,10 z" fill="#fab219"/></marker></defs><rect x="0.5" y="0.5" width="1119" height="1081" rx="12" fill="#1a1a19" stroke="rgba(255,255,255,0.10)"/><text x="24.0" y="34.0" font-size="15.5" fill="#ffffff" font-weight="600" text-anchor="start">Exemple d'orchestration pour /implementation : code et tests</text><rect x="577.4" y="20.0" width="92.8" height="20.0" rx="6" fill="#2565bd"/><text x="623.8" y="34.0" font-size="10.5" fill="#fff" font-weight="600" text-anchor="middle" letter-spacing="0.08em">DÉVELOPPEUR</text><text x="838.6" y="34.0" font-size="11" fill="#c3c2b7" font-weight="normal" text-anchor="start">une orchestration par périmètre, même déroulé</text><rect x="777.6" y="20.0" width="53.0" height="20.0" rx="10" fill="#1a1a19" stroke="#2565bd" stroke-width="1"/><text x="804.1" y="34.0" font-size="10.5" fill="#3987e5" font-weight="600" text-anchor="middle" letter-spacing="0.06em">FRONT</text><rect x="723.6" y="20.0" width="46.0" height="20.0" rx="10" fill="#1a1a19" stroke="#2565bd" stroke-width="1"/><text x="746.6" y="34.0" font-size="10.5" fill="#3987e5" font-weight="600" text-anchor="middle" letter-spacing="0.06em">BACK</text><text x="24.0" y="56.0" font-size="12.5" fill="#c3c2b7" font-weight="normal" text-anchor="start">Du plan approuvé au code mergé, phase par phase : le testeur pose les tests, le codeur les fait passer, les gardes-fous et un vérificateur tranchent, le</text><text x="24.0" y="73.0" font-size="12.5" fill="#c3c2b7" font-weight="normal" text-anchor="start">développeur relit chaque phase avant de la commiter. Après le push, la CI/CD boucle avec la phase ; les contrôles de nuit, eux, ouvrent des tickets.</text><rect x="24.0" y="185.0" width="92.0" height="241.0" rx="10" fill="#2565bd"/><text x="70.0" y="303.5" font-size="12.5" fill="#fff" font-weight="600" text-anchor="middle">L'agent</text><text x="70.0" y="319.5" font-size="11" fill="#fff" font-weight="normal" text-anchor="middle">propose</text><rect x="124.0" y="179.0" width="980.0" height="253.0" rx="8" fill="#232322"/><rect x="24.0" y="474.0" width="92.0" height="201.0" rx="10" fill="#006300"/><text x="70.0" y="565.5" font-size="12.5" fill="#fff" font-weight="600" text-anchor="middle">La règle</text><text x="70.0" y="581.5" font-size="11" fill="#fff" font-weight="normal" text-anchor="middle">prouve</text><text x="70.0" y="595.5" font-size="10" fill="#fff" font-weight="normal" text-anchor="middle">déterministe</text><rect x="124.0" y="468.0" width="980.0" height="213.0" rx="8" fill="#232322"/><rect x="24.0" y="723.0" width="92.0" height="174.0" rx="10" fill="#fab219"/><text x="70.0" y="808.0" font-size="12.5" fill="#0b0b0b" font-weight="600" text-anchor="middle">L'humain</text><text x="70.0" y="824.0" font-size="11" fill="#0b0b0b" font-weight="normal" text-anchor="middle">décide</text><rect x="124.0" y="717.0" width="980.0" height="186.0" rx="8" fill="#232322"/><path d="M187.7,737.2 L187.7,360.0" fill="none" stroke="#fab219" stroke-width="1.6" marker-end="url(#arr-implementation-amb)"/><path d="M241.4,305.5 L273.4,305.5" fill="none" stroke="#c3c2b7" stroke-width="1.6" marker-end="url(#arr-implementation-n)"/><path d="M314.1,418.5 L314.1,478.8" fill="none" stroke="#c3c2b7" stroke-width="1.6" marker-end="url(#arr-implementation-n)"/><path d="M346.1,480.8 L346.1,420.5" fill="none" stroke="#f07070" stroke-width="1.6" stroke-dasharray="5 4" marker-end="url(#arr-implementation-ko)"/><rect x="353.1" y="440.6" width="56.8" height="17.0" rx="8" fill="#1a1a19" stroke="#f07070" stroke-width="1"/><text x="381.5" y="453.1" font-size="9.5" fill="#f07070" font-weight="600" text-anchor="middle">3 essais</text><path d="M384.9,574.5 L401.9,574.5 L401.9,305.5 L416.9,305.5" fill="none" stroke="#0ca30c" stroke-width="1.6" marker-end="url(#arr-implementation-ok)"/><rect x="403.9" y="433.5" width="26.3" height="14.5" rx="3" fill="#1a1a19"/><text x="407.9" y="444.0" font-size="10.5" fill="#0ca30c" font-weight="600" text-anchor="start">oui</text><path d="M463.5,404.0 L463.5,487.0" fill="none" stroke="#c3c2b7" stroke-width="1.6" marker-end="url(#arr-implementation-n)"/><path d="M495.5,489.0 L495.5,406.0" fill="none" stroke="#f07070" stroke-width="1.6" stroke-dasharray="5 4" marker-end="url(#arr-implementation-ko)"/><rect x="502.5" y="437.5" width="56.8" height="17.0" rx="8" fill="#1a1a19" stroke="#f07070" stroke-width="1"/><text x="530.9" y="450.0" font-size="9.5" fill="#f07070" font-weight="600" text-anchor="middle">3 essais</text><path d="M479.5,660.0 L479.5,742.0" fill="none" stroke="#f07070" stroke-width="1.6" marker-end="url(#arr-implementation-ko)"/><path d="M540.2,574.5 L557.2,574.5 L557.2,305.5 L572.2,305.5" fill="none" stroke="#0ca30c" stroke-width="1.6" marker-end="url(#arr-implementation-ok)"/><rect x="559.2" y="433.5" width="87.2" height="14.5" rx="3" fill="#1a1a19"/><text x="563.2" y="444.0" font-size="10.5" fill="#0ca30c" font-weight="600" text-anchor="start">tout est vert</text><path d="M627.9,211.8 L627.9,101.0 L479.5,101.0 L479.5,205.0" fill="none" stroke="#f07070" stroke-width="1.6" stroke-dasharray="5 4" marker-end="url(#arr-implementation-ko)"/><rect x="388.3" y="85.5" width="330.8" height="14.5" rx="3" fill="#1a1a19"/><text x="553.7" y="96.0" font-size="10.5" fill="#f07070" font-weight="600" text-anchor="middle">refusé : le motif repart au codeur · 3 essais au plus</text><path d="M611.9,399.2 L611.9,721.0" fill="none" stroke="#0ca30c" stroke-width="1.6" marker-end="url(#arr-implementation-ok)"/><rect x="588.7" y="553.6" width="20.2" height="14.5" rx="3" fill="#1a1a19"/><text x="604.9" y="564.1" font-size="10.5" fill="#0ca30c" font-weight="600" text-anchor="end">OK</text><path d="M574.2,810.0 L548.2,810.0 L548.2,127.0 L497.5,127.0 L497.5,205.0" fill="none" stroke="#fab219" stroke-width="1.6" stroke-dasharray="5 4" marker-end="url(#arr-implementation-amb)"/><rect x="415.3" y="111.5" width="215.1" height="14.5" rx="3" fill="#1a1a19"/><text x="522.9" y="122.0" font-size="10.5" fill="#fab219" font-weight="600" text-anchor="middle">non : sa remarque repart au codeur</text><path d="M681.6,810.0 L698.6,810.0 L698.6,574.5 L713.6,574.5" fill="none" stroke="#fab219" stroke-width="1.6" marker-end="url(#arr-implementation-amb)"/><rect x="700.6" y="685.8" width="26.3" height="14.5" rx="3" fill="#1a1a19"/><text x="704.6" y="696.2" font-size="10.5" fill="#fab219" font-weight="600" text-anchor="start">oui</text><path d="M759.4,495.0 L759.4,360.8" fill="none" stroke="#0ca30c" stroke-width="1.6" marker-end="url(#arr-implementation-ok)"/><rect x="663.1" y="421.4" width="93.3" height="14.5" rx="3" fill="#1a1a19"/><text x="752.4" y="431.9" font-size="10.5" fill="#0ca30c" font-weight="600" text-anchor="end">dernière phase</text><path d="M760.4,654.0 L760.4,921.0 L258.4,921.0 L258.4,318.5 L273.4,318.5" fill="none" stroke="#0ca30c" stroke-width="1.6" marker-end="url(#arr-implementation-ok)"/><rect x="344.0" y="905.5" width="330.8" height="14.5" rx="3" fill="#1a1a19"/><text x="509.4" y="916.0" font-size="10.5" fill="#0ca30c" font-weight="600" text-anchor="middle">phase suivante : le testeur reprend avec la phase N+1</text><path d="M815.2,305.5 L837.2,305.5" fill="none" stroke="#c3c2b7" stroke-width="1.6" marker-end="url(#arr-implementation-n)"/><path d="M881.9,426.0 L881.9,485.5" fill="none" stroke="#c3c2b7" stroke-width="1.6" marker-end="url(#arr-implementation-n)"/><path d="M839.2,574.5 L825.2,574.5 L825.2,153.0 L461.5,153.0 L461.5,205.0" fill="none" stroke="#f07070" stroke-width="1.6" stroke-dasharray="5 4" marker-end="url(#arr-implementation-ko)"/><rect x="362.3" y="137.5" width="562.2" height="14.5" rx="3" fill="#1a1a19"/><text x="643.4" y="148.0" font-size="10.5" fill="#f07070" font-weight="600" text-anchor="middle">revue rejetée ou issue Sonar : la correction rejoint le plan de la phase, le codeur reprend</text><path d="M881.9,661.5 L881.9,762.2" fill="none" stroke="#0ca30c" stroke-width="1.6" marker-end="url(#arr-implementation-ok)"/><rect x="791.7" y="705.4" width="87.2" height="14.5" rx="3" fill="#1a1a19"/><text x="874.9" y="715.9" font-size="10.5" fill="#0ca30c" font-weight="600" text-anchor="end">tout est vert</text><path d="M956.5,810.0 L973.5,810.0 L973.5,305.5 L988.5,305.5" fill="none" stroke="#fab219" stroke-width="1.6" marker-end="url(#arr-implementation-amb)"/><path d="M1026.3,350.5 L1026.3,472.0" fill="none" stroke="#c3c2b7" stroke-width="1.6" marker-end="url(#arr-implementation-n)"/><path d="M1042.3,675.0 L1042.3,741.2" fill="none" stroke="#f07070" stroke-width="1.6" stroke-dasharray="5 4" marker-end="url(#arr-implementation-ko)"/><rect x="1045.3" y="701.6" width="44.5" height="14.5" rx="3" fill="#1a1a19"/><text x="1049.3" y="712.1" font-size="10.5" fill="#f07070" font-weight="600" text-anchor="start">écarts</text><path d="M134,253.0 h97.43147208121827 l10,10 v95.0 h-107.43147208121827 z" fill="#1a1a19" stroke="#c3c2b7" stroke-width="1.2" stroke-dasharray="4 3"/><path d="M231.43147208121826,253.0 v10 h10" fill="none" stroke="#c3c2b7" stroke-width="1.2"/><text x="144.0" y="274.0" font-size="12" fill="#ffffff" font-weight="600" text-anchor="start">Plan + revue</text><text x="144.0" y="289.0" font-size="12" fill="#ffffff" font-weight="600" text-anchor="start">d'impact</text><text x="144.0" y="306.0" font-size="11" fill="#c3c2b7" font-weight="normal" text-anchor="start">du périmètre</text><text x="144.0" y="319.5" font-size="11" fill="#c3c2b7" font-weight="normal" text-anchor="start">(back ou</text><text x="144.0" y="333.0" font-size="11" fill="#c3c2b7" font-weight="normal" text-anchor="start">front) · phase</text><text x="144.0" y="346.5" font-size="11" fill="#c3c2b7" font-weight="normal" text-anchor="start">N</text><rect x="134.0" y="737.2" width="107.4" height="145.5" rx="9" fill="#2a2418"/><text x="144.0" y="758.2" font-size="12" fill="#fab219" font-weight="600" text-anchor="start">Lance la</text><text x="144.0" y="773.2" font-size="12" fill="#fab219" font-weight="600" text-anchor="start">phase</text><text x="144.0" y="790.2" font-size="11" fill="#ffffff" font-weight="normal" text-anchor="start">/implementation,</text><text x="144.0" y="803.8" font-size="11" fill="#ffffff" font-weight="normal" text-anchor="start">approche :</text><text x="144.0" y="817.2" font-size="11" fill="#ffffff" font-weight="normal" text-anchor="start">test first</text><text x="144.0" y="830.8" font-size="11" fill="#ffffff" font-weight="normal" text-anchor="start">(ici),</text><text x="144.0" y="844.2" font-size="11" fill="#ffffff" font-weight="normal" text-anchor="start">acceptance</text><text x="144.0" y="857.8" font-size="11" fill="#ffffff" font-weight="normal" text-anchor="start">first ou code</text><text x="144.0" y="871.2" font-size="11" fill="#ffffff" font-weight="normal" text-anchor="start">first</text><circle cx="135.0" cy="738.2" r="10" fill="#123f77" stroke="#1a1a19" stroke-width="2"/><text x="135.0" y="742.2" font-size="11" fill="#ffffff" font-weight="700" text-anchor="middle">1</text><rect x="275.4" y="192.5" width="109.4" height="226.0" rx="9" fill="#20242c"/><rect x="275.4" y="200.5" width="3" height="210.0" rx="1.5" fill="#2565bd"/><text x="289.4" y="213.5" font-size="12" fill="#ffffff" font-weight="600" text-anchor="start">Agent</text><text x="289.4" y="228.5" font-size="12" fill="#ffffff" font-weight="600" text-anchor="start">testeur</text><text x="289.4" y="245.5" font-size="11" fill="#ffffff" font-weight="normal" text-anchor="start">Écrit les</text><text x="289.4" y="259.0" font-size="11" fill="#ffffff" font-weight="normal" text-anchor="start">tests de la</text><text x="289.4" y="272.5" font-size="11" fill="#ffffff" font-weight="normal" text-anchor="start">phase :</text><text x="289.4" y="286.0" font-size="11" fill="#ffffff" font-weight="normal" text-anchor="start">unitaires,</text><text x="289.4" y="299.5" font-size="11" fill="#ffffff" font-weight="normal" text-anchor="start">intégration,</text><text x="289.4" y="313.0" font-size="11" fill="#ffffff" font-weight="normal" text-anchor="start">bout en bout</text><text x="289.4" y="330.0" font-size="10.5" fill="#c3c2b7" font-style="italic" text-anchor="start">contexte : plan</text><text x="289.4" y="343.0" font-size="10.5" fill="#c3c2b7" font-style="italic" text-anchor="start">· critères</text><text x="289.4" y="356.0" font-size="10.5" fill="#c3c2b7" font-style="italic" text-anchor="start">d'acceptation ·</text><text x="289.4" y="369.0" font-size="10.5" fill="#c3c2b7" font-style="italic" text-anchor="start">standards de</text><text x="289.4" y="382.0" font-size="10.5" fill="#c3c2b7" font-style="italic" text-anchor="start">test</text><rect x="289.4" y="391.5" width="82.0" height="18.0" rx="9" fill="#1a1a19" stroke="#3987e5" stroke-width="1"/><text x="330.4" y="404.5" font-size="10.5" fill="#3987e5" font-weight="600" text-anchor="middle">Playwright</text><circle cx="276.4" cy="193.5" r="10" fill="#123f77" stroke="#1a1a19" stroke-width="2"/><text x="276.4" y="197.5" font-size="11" fill="#ffffff" font-weight="700" text-anchor="middle">2</text><rect x="275.4" y="480.8" width="109.4" height="187.5" rx="9" fill="#1f271f" stroke="#0ca30c" stroke-width="1"/><text x="285.4" y="501.8" font-size="12" fill="#0ca30c" font-weight="600" text-anchor="start">Les tests</text><text x="285.4" y="516.8" font-size="12" fill="#0ca30c" font-weight="600" text-anchor="start">échouent</text><text x="285.4" y="531.8" font-size="12" fill="#0ca30c" font-weight="600" text-anchor="start">encore ?</text><circle cx="288.4" cy="544.8" r="1.8" fill="#ffffff"/><text x="294.4" y="548.8" font-size="11" fill="#ffffff" font-weight="normal" text-anchor="start">Un test qui</text><text x="294.4" y="562.2" font-size="11" fill="#ffffff" font-weight="normal" text-anchor="start">passe déjà ne</text><text x="294.4" y="575.8" font-size="11" fill="#ffffff" font-weight="normal" text-anchor="start">teste rien</text><circle cx="288.4" cy="585.2" r="1.8" fill="#ffffff"/><text x="294.4" y="589.2" font-size="11" fill="#ffffff" font-weight="normal" text-anchor="start">Puis les</text><text x="294.4" y="602.8" font-size="11" fill="#ffffff" font-weight="normal" text-anchor="start">tests sont</text><text x="294.4" y="616.2" font-size="11" fill="#ffffff" font-weight="normal" text-anchor="start">gelés : le</text><text x="294.4" y="629.8" font-size="11" fill="#ffffff" font-weight="normal" text-anchor="start">codeur ne</text><text x="294.4" y="643.2" font-size="11" fill="#ffffff" font-weight="normal" text-anchor="start">pourra pas</text><text x="294.4" y="656.8" font-size="11" fill="#ffffff" font-weight="normal" text-anchor="start">les modifier</text><circle cx="276.4" cy="481.8" r="10" fill="#123f77" stroke="#1a1a19" stroke-width="2"/><text x="276.4" y="485.8" font-size="11" fill="#ffffff" font-weight="700" text-anchor="middle">3</text><rect x="418.9" y="207.0" width="121.4" height="197.0" rx="9" fill="#20242c"/><rect x="418.9" y="215.0" width="3" height="181.0" rx="1.5" fill="#2565bd"/><text x="432.9" y="228.0" font-size="12" fill="#ffffff" font-weight="600" text-anchor="start">Agent codeur</text><text x="432.9" y="245.0" font-size="11" fill="#ffffff" font-weight="normal" text-anchor="start">Écrit le code de</text><text x="432.9" y="258.5" font-size="11" fill="#ffffff" font-weight="normal" text-anchor="start">la phase pour</text><text x="432.9" y="272.0" font-size="11" fill="#ffffff" font-weight="normal" text-anchor="start">faire passer les</text><text x="432.9" y="285.5" font-size="11" fill="#ffffff" font-weight="normal" text-anchor="start">tests</text><text x="432.9" y="302.5" font-size="10.5" fill="#c3c2b7" font-style="italic" text-anchor="start">contexte : plan ·</text><text x="432.9" y="315.5" font-size="10.5" fill="#c3c2b7" font-style="italic" text-anchor="start">revue d'impact ·</text><text x="432.9" y="328.5" font-size="10.5" fill="#c3c2b7" font-style="italic" text-anchor="start">maquette au</text><text x="432.9" y="341.5" font-size="10.5" fill="#c3c2b7" font-style="italic" text-anchor="start">besoin ·</text><text x="432.9" y="354.5" font-size="10.5" fill="#c3c2b7" font-style="italic" text-anchor="start">standards de</text><text x="432.9" y="367.5" font-size="10.5" fill="#c3c2b7" font-style="italic" text-anchor="start">développement</text><rect x="432.9" y="377.0" width="49.0" height="18.0" rx="9" fill="#1a1a19" stroke="#3987e5" stroke-width="1"/><text x="457.4" y="390.0" font-size="10.5" fill="#3987e5" font-weight="600" text-anchor="middle">Figma</text><rect x="486.9" y="377.0" width="42.4" height="18.0" rx="9" fill="#1a1a19" stroke="#3987e5" stroke-width="1"/><text x="508.1" y="390.0" font-size="10.5" fill="#3987e5" font-weight="600" text-anchor="middle">DSFR</text><circle cx="419.9" cy="208.0" r="10" fill="#123f77" stroke="#1a1a19" stroke-width="2"/><text x="419.9" y="212.0" font-size="11" fill="#ffffff" font-weight="700" text-anchor="middle">4</text><rect x="418.9" y="489.0" width="121.4" height="171.0" rx="9" fill="#1f271f" stroke="#0ca30c" stroke-width="1"/><text x="428.9" y="510.0" font-size="12" fill="#0ca30c" font-weight="600" text-anchor="start">Gardes-fous</text><circle cx="431.9" cy="523.0" r="1.8" fill="#ffffff"/><text x="437.9" y="527.0" font-size="11" fill="#ffffff" font-weight="normal" text-anchor="start">Tests gelés</text><text x="437.9" y="540.5" font-size="11" fill="#ffffff" font-weight="normal" text-anchor="start">intacts, sinon</text><text x="437.9" y="554.0" font-size="11" fill="#ffffff" font-weight="normal" text-anchor="start">restaurés</text><circle cx="431.9" cy="563.5" r="1.8" fill="#ffffff"/><text x="437.9" y="567.5" font-size="11" fill="#ffffff" font-weight="normal" text-anchor="start">Fichiers</text><text x="437.9" y="581.0" font-size="11" fill="#ffffff" font-weight="normal" text-anchor="start">annoncés bien</text><text x="437.9" y="594.5" font-size="11" fill="#ffffff" font-weight="normal" text-anchor="start">touchés</text><circle cx="431.9" cy="604.0" r="1.8" fill="#ffffff"/><text x="437.9" y="608.0" font-size="11" fill="#ffffff" font-weight="normal" text-anchor="start">Lint, build,</text><text x="437.9" y="621.5" font-size="11" fill="#ffffff" font-weight="normal" text-anchor="start">tests verts</text><circle cx="431.9" cy="631.0" r="1.8" fill="#ffffff"/><text x="437.9" y="635.0" font-size="11" fill="#ffffff" font-weight="normal" text-anchor="start">Quality gate :</text><text x="437.9" y="648.5" font-size="11" fill="#ffffff" font-weight="normal" text-anchor="start">RGAA, standards</text><circle cx="419.9" cy="490.0" r="10" fill="#123f77" stroke="#1a1a19" stroke-width="2"/><text x="419.9" y="494.0" font-size="11" fill="#ffffff" font-weight="700" text-anchor="middle">5</text><rect x="418.9" y="744.0" width="121.4" height="132.0" rx="9" fill="#1a1a19" stroke="#f07070" stroke-width="1" stroke-dasharray="4 3"/><text x="428.9" y="765.0" font-size="12" fill="#f07070" font-weight="600" text-anchor="start">Reprend la</text><text x="428.9" y="780.0" font-size="12" fill="#f07070" font-weight="600" text-anchor="start">main</text><text x="428.9" y="797.0" font-size="11" fill="#c3c2b7" font-weight="normal" text-anchor="start">un test casse</text><text x="428.9" y="810.5" font-size="11" fill="#c3c2b7" font-weight="normal" text-anchor="start">sans avoir été</text><text x="428.9" y="824.0" font-size="11" fill="#c3c2b7" font-weight="normal" text-anchor="start">prévu, ou 3</text><text x="428.9" y="837.5" font-size="11" fill="#c3c2b7" font-weight="normal" text-anchor="start">échecs :</text><text x="428.9" y="851.0" font-size="11" fill="#c3c2b7" font-weight="normal" text-anchor="start">l'orchestration</text><text x="428.9" y="864.5" font-size="11" fill="#c3c2b7" font-weight="normal" text-anchor="start">s'arrête</text><rect x="574.2" y="211.8" width="107.4" height="187.5" rx="9" fill="#20242c"/><rect x="574.2" y="219.8" width="3" height="171.5" rx="1.5" fill="#2565bd"/><text x="588.2" y="229.8" font-size="9.5" fill="#3987e5" font-weight="600" text-anchor="start" letter-spacing="0.06em">BOUCLE IA · CONTEXTE VIERGE</text><text x="588.2" y="245.8" font-size="12" fill="#ffffff" font-weight="600" text-anchor="start">Agent</text><text x="588.2" y="260.8" font-size="12" fill="#ffffff" font-weight="600" text-anchor="start">vérificateur</text><text x="588.2" y="277.8" font-size="11" fill="#ffffff" font-weight="normal" text-anchor="start">La phase</text><text x="588.2" y="291.2" font-size="11" fill="#ffffff" font-weight="normal" text-anchor="start">livre-t-elle</text><text x="588.2" y="304.8" font-size="11" fill="#ffffff" font-weight="normal" text-anchor="start">tout ce que le</text><text x="588.2" y="318.2" font-size="11" fill="#ffffff" font-weight="normal" text-anchor="start">plan</text><text x="588.2" y="331.8" font-size="11" fill="#ffffff" font-weight="normal" text-anchor="start">annonçait ?</text><text x="588.2" y="348.8" font-size="10.5" fill="#c3c2b7" font-style="italic" text-anchor="start">contexte : le</text><text x="588.2" y="361.8" font-size="10.5" fill="#c3c2b7" font-style="italic" text-anchor="start">plan de la</text><text x="588.2" y="374.8" font-size="10.5" fill="#c3c2b7" font-style="italic" text-anchor="start">phase, le code</text><text x="588.2" y="387.8" font-size="10.5" fill="#c3c2b7" font-style="italic" text-anchor="start">produit</text><circle cx="575.2" cy="212.8" r="10" fill="#123f77" stroke="#1a1a19" stroke-width="2"/><text x="575.2" y="216.8" font-size="11" fill="#ffffff" font-weight="700" text-anchor="middle">6</text><rect x="574.2" y="723.0" width="107.4" height="174.0" rx="14" fill="#2a2418" stroke="#fab219" stroke-width="1"/><text x="584.2" y="744.0" font-size="12" fill="#fab219" font-weight="600" text-anchor="start">Relit la</text><text x="584.2" y="759.0" font-size="12" fill="#fab219" font-weight="600" text-anchor="start">phase,</text><text x="584.2" y="774.0" font-size="12" fill="#fab219" font-weight="600" text-anchor="start">commite ?</text><text x="584.2" y="791.0" font-size="11" fill="#ffffff" font-weight="normal" text-anchor="start">oui : commit ·</text><text x="584.2" y="804.5" font-size="11" fill="#ffffff" font-weight="normal" text-anchor="start">non : sa</text><text x="584.2" y="818.0" font-size="11" fill="#ffffff" font-weight="normal" text-anchor="start">remarque</text><text x="584.2" y="831.5" font-size="11" fill="#ffffff" font-weight="normal" text-anchor="start">repart au</text><text x="584.2" y="845.0" font-size="11" fill="#ffffff" font-weight="normal" text-anchor="start">codeur</text><text x="584.2" y="858.5" font-size="11" fill="#ffffff" font-weight="normal" text-anchor="start">après la</text><text x="584.2" y="872.0" font-size="11" fill="#ffffff" font-weight="normal" text-anchor="start">dernière</text><text x="584.2" y="885.5" font-size="11" fill="#ffffff" font-weight="normal" text-anchor="start">phase : pousse</text><circle cx="575.2" cy="724.0" r="10" fill="#123f77" stroke="#1a1a19" stroke-width="2"/><text x="575.2" y="728.0" font-size="11" fill="#ffffff" font-weight="700" text-anchor="middle">7</text><rect x="715.6" y="495.0" width="89.5" height="159.0" rx="9" fill="#1f271f" stroke="#0ca30c" stroke-width="1"/><text x="725.6" y="516.0" font-size="12" fill="#0ca30c" font-weight="600" text-anchor="start">Point de</text><text x="725.6" y="531.0" font-size="12" fill="#0ca30c" font-weight="600" text-anchor="start">sauvegarde</text><circle cx="728.6" cy="544.0" r="1.8" fill="#ffffff"/><text x="734.6" y="548.0" font-size="11" fill="#ffffff" font-weight="normal" text-anchor="start">Le commit</text><text x="734.6" y="561.5" font-size="11" fill="#ffffff" font-weight="normal" text-anchor="start">de la</text><text x="734.6" y="575.0" font-size="11" fill="#ffffff" font-weight="normal" text-anchor="start">phase</text><circle cx="728.6" cy="584.5" r="1.8" fill="#ffffff"/><text x="734.6" y="588.5" font-size="11" fill="#ffffff" font-weight="normal" text-anchor="start">Si la</text><text x="734.6" y="602.0" font-size="11" fill="#ffffff" font-weight="normal" text-anchor="start">suite</text><text x="734.6" y="615.5" font-size="11" fill="#ffffff" font-weight="normal" text-anchor="start">casse, on</text><text x="734.6" y="629.0" font-size="11" fill="#ffffff" font-weight="normal" text-anchor="start">revient</text><text x="734.6" y="642.5" font-size="11" fill="#ffffff" font-weight="normal" text-anchor="start">ici</text><circle cx="716.6" cy="496.0" r="10" fill="#123f77" stroke="#1a1a19" stroke-width="2"/><text x="716.6" y="500.0" font-size="11" fill="#ffffff" font-weight="700" text-anchor="middle">8</text><path d="M715.6,252.2 L803.2,252.2 L815.2,305.5 L803.2,358.8 L715.6,358.8 Z" fill="#123f77"/><text x="725.6" y="273.2" font-size="12" fill="#ffffff" font-weight="600" text-anchor="start">Code +</text><text x="725.6" y="288.2" font-size="12" fill="#ffffff" font-weight="600" text-anchor="start">tests</text><text x="725.6" y="303.2" font-size="12" fill="#ffffff" font-weight="600" text-anchor="start">poussés</text><text x="725.6" y="320.2" font-size="11" fill="#ffffff" font-weight="normal" text-anchor="start">la CI/CD</text><text x="725.6" y="333.8" font-size="11" fill="#ffffff" font-weight="normal" text-anchor="start">prend le</text><text x="725.6" y="347.2" font-size="11" fill="#ffffff" font-weight="normal" text-anchor="start">relais</text><circle cx="716.6" cy="253.2" r="10" fill="#123f77" stroke="#1a1a19" stroke-width="2"/><text x="716.6" y="257.2" font-size="11" fill="#ffffff" font-weight="700" text-anchor="middle">9</text><rect x="839.2" y="185.0" width="117.4" height="241.0" rx="9" fill="#20242c"/><rect x="839.2" y="193.0" width="3" height="225.0" rx="1.5" fill="#2565bd"/><text x="853.2" y="203.0" font-size="9.5" fill="#3987e5" font-weight="600" text-anchor="start" letter-spacing="0.06em">BOUCLE IA · CONTEXTE VIERGE</text><text x="853.2" y="219.0" font-size="12" fill="#ffffff" font-weight="600" text-anchor="start">Bot de revue</text><text x="853.2" y="234.0" font-size="12" fill="#ffffff" font-weight="600" text-anchor="start">IA</text><circle cx="856.2" cy="247.0" r="1.8" fill="#ffffff"/><text x="862.2" y="251.0" font-size="11" fill="#ffffff" font-weight="normal" text-anchor="start">Relit la</text><text x="862.2" y="264.5" font-size="11" fill="#ffffff" font-weight="normal" text-anchor="start">diff :</text><text x="862.2" y="278.0" font-size="11" fill="#ffffff" font-weight="normal" text-anchor="start">standards,</text><text x="862.2" y="291.5" font-size="11" fill="#ffffff" font-weight="normal" text-anchor="start">lisibilité,</text><text x="862.2" y="305.0" font-size="11" fill="#ffffff" font-weight="normal" text-anchor="start">régressions</text><circle cx="856.2" cy="314.5" r="1.8" fill="#ffffff"/><text x="862.2" y="318.5" font-size="11" fill="#ffffff" font-weight="normal" text-anchor="start">Approuve ou</text><text x="862.2" y="332.0" font-size="11" fill="#ffffff" font-weight="normal" text-anchor="start">demande des</text><text x="862.2" y="345.5" font-size="11" fill="#ffffff" font-weight="normal" text-anchor="start">changements</text><text x="853.2" y="362.5" font-size="10.5" fill="#c3c2b7" font-style="italic" text-anchor="start">contexte :</text><text x="853.2" y="375.5" font-size="10.5" fill="#c3c2b7" font-style="italic" text-anchor="start">standards de</text><text x="853.2" y="388.5" font-size="10.5" fill="#c3c2b7" font-style="italic" text-anchor="start">développement ·</text><text x="853.2" y="401.5" font-size="10.5" fill="#c3c2b7" font-style="italic" text-anchor="start">le plan de la</text><text x="853.2" y="414.5" font-size="10.5" fill="#c3c2b7" font-style="italic" text-anchor="start">phase</text><circle cx="840.2" cy="186.0" r="10" fill="#123f77" stroke="#1a1a19" stroke-width="2"/><text x="840.2" y="190.0" font-size="11" fill="#ffffff" font-weight="700" text-anchor="middle">10</text><rect x="839.2" y="487.5" width="117.4" height="174.0" rx="9" fill="#1f271f" stroke="#0ca30c" stroke-width="1"/><text x="849.2" y="508.5" font-size="12" fill="#0ca30c" font-weight="600" text-anchor="start">La PR</text><text x="849.2" y="523.5" font-size="12" fill="#0ca30c" font-weight="600" text-anchor="start">peut-elle</text><text x="849.2" y="538.5" font-size="12" fill="#0ca30c" font-weight="600" text-anchor="start">passer ?</text><circle cx="852.2" cy="551.5" r="1.8" fill="#ffffff"/><text x="858.2" y="555.5" font-size="11" fill="#ffffff" font-weight="normal" text-anchor="start">Revue du bot IA</text><text x="858.2" y="569.0" font-size="11" fill="#ffffff" font-weight="normal" text-anchor="start">approuvée</text><circle cx="852.2" cy="578.5" r="1.8" fill="#ffffff"/><text x="858.2" y="582.5" font-size="11" fill="#ffffff" font-weight="normal" text-anchor="start">Sonar vert :</text><text x="858.2" y="596.0" font-size="11" fill="#ffffff" font-weight="normal" text-anchor="start">couverture,</text><text x="858.2" y="609.5" font-size="11" fill="#ffffff" font-weight="normal" text-anchor="start">duplication,</text><text x="858.2" y="623.0" font-size="11" fill="#ffffff" font-weight="normal" text-anchor="start">vulnérabilités</text><circle cx="852.2" cy="632.5" r="1.8" fill="#ffffff"/><text x="858.2" y="636.5" font-size="11" fill="#ffffff" font-weight="normal" text-anchor="start">Lint, build et</text><text x="858.2" y="650.0" font-size="11" fill="#ffffff" font-weight="normal" text-anchor="start">tests rejoués</text><circle cx="840.2" cy="488.5" r="10" fill="#123f77" stroke="#1a1a19" stroke-width="2"/><text x="840.2" y="492.5" font-size="11" fill="#ffffff" font-weight="700" text-anchor="middle">11</text><rect x="839.2" y="764.2" width="117.4" height="91.5" rx="9" fill="#2a2418"/><text x="849.2" y="785.2" font-size="12" fill="#fab219" font-weight="600" text-anchor="start">Valide et</text><text x="849.2" y="800.2" font-size="12" fill="#fab219" font-weight="600" text-anchor="start">merge</text><text x="849.2" y="817.2" font-size="11" fill="#ffffff" font-weight="normal" text-anchor="start">arbitre les</text><text x="849.2" y="830.8" font-size="11" fill="#ffffff" font-weight="normal" text-anchor="start">remarques du</text><text x="849.2" y="844.2" font-size="11" fill="#ffffff" font-weight="normal" text-anchor="start">bot, puis merge</text><circle cx="840.2" cy="765.2" r="10" fill="#123f77" stroke="#1a1a19" stroke-width="2"/><text x="840.2" y="769.2" font-size="11" fill="#ffffff" font-weight="700" text-anchor="middle">12</text><path d="M990.5,260.5 L1092.0,260.5 L1104.0,305.5 L1092.0,350.5 L990.5,350.5 Z" fill="#123f77"/><text x="1000.5" y="281.5" font-size="12" fill="#ffffff" font-weight="600" text-anchor="start">Code mergé</text><text x="1000.5" y="298.5" font-size="11" fill="#ffffff" font-weight="normal" text-anchor="start">la</text><text x="1000.5" y="312.0" font-size="11" fill="#ffffff" font-weight="normal" text-anchor="start">fonctionnalité</text><text x="1000.5" y="325.5" font-size="11" fill="#ffffff" font-weight="normal" text-anchor="start">part en</text><text x="1000.5" y="339.0" font-size="11" fill="#ffffff" font-weight="normal" text-anchor="start">recette</text><circle cx="991.5" cy="261.5" r="10" fill="#123f77" stroke="#1a1a19" stroke-width="2"/><text x="991.5" y="265.5" font-size="11" fill="#ffffff" font-weight="700" text-anchor="middle">13</text><rect x="990.5" y="474.0" width="103.5" height="201.0" rx="9" fill="#1f271f" stroke="#0ca30c" stroke-width="1"/><text x="1000.5" y="495.0" font-size="12" fill="#0ca30c" font-weight="600" text-anchor="start">Chaque</text><text x="1000.5" y="510.0" font-size="12" fill="#0ca30c" font-weight="600" text-anchor="start">nuit, hors</text><text x="1000.5" y="525.0" font-size="12" fill="#0ca30c" font-weight="600" text-anchor="start">boucle</text><circle cx="1003.5" cy="538.0" r="1.8" fill="#ffffff"/><text x="1009.5" y="542.0" font-size="11" fill="#ffffff" font-weight="normal" text-anchor="start">Pré-audit</text><text x="1009.5" y="555.5" font-size="11" fill="#ffffff" font-weight="normal" text-anchor="start">RGAA poussé</text><circle cx="1003.5" cy="565.0" r="1.8" fill="#ffffff"/><text x="1009.5" y="569.0" font-size="11" fill="#ffffff" font-weight="normal" text-anchor="start">Analyse de</text><text x="1009.5" y="582.5" font-size="11" fill="#ffffff" font-weight="normal" text-anchor="start">sécurité :</text><text x="1009.5" y="596.0" font-size="11" fill="#ffffff" font-weight="normal" text-anchor="start">dépendances,</text><text x="1009.5" y="609.5" font-size="11" fill="#ffffff" font-weight="normal" text-anchor="start">code</text><circle cx="1003.5" cy="619.0" r="1.8" fill="#ffffff"/><text x="1009.5" y="623.0" font-size="11" fill="#ffffff" font-weight="normal" text-anchor="start">Trop long</text><text x="1009.5" y="636.5" font-size="11" fill="#ffffff" font-weight="normal" text-anchor="start">pour tourner</text><text x="1009.5" y="650.0" font-size="11" fill="#ffffff" font-weight="normal" text-anchor="start">à chaque</text><text x="1009.5" y="663.5" font-size="11" fill="#ffffff" font-weight="normal" text-anchor="start">push</text><circle cx="991.5" cy="475.0" r="10" fill="#123f77" stroke="#1a1a19" stroke-width="2"/><text x="991.5" y="479.0" font-size="11" fill="#ffffff" font-weight="700" text-anchor="middle">14</text><rect x="990.5" y="743.2" width="103.5" height="133.5" rx="9" fill="#2a2418"/><text x="1000.5" y="764.2" font-size="12" fill="#fab219" font-weight="600" text-anchor="start">Les écarts</text><text x="1000.5" y="779.2" font-size="12" fill="#fab219" font-weight="600" text-anchor="start">ouvrent des</text><text x="1000.5" y="794.2" font-size="12" fill="#fab219" font-weight="600" text-anchor="start">tickets</text><text x="1000.5" y="811.2" font-size="11" fill="#ffffff" font-weight="normal" text-anchor="start">corrigés dans</text><text x="1000.5" y="824.8" font-size="11" fill="#ffffff" font-weight="normal" text-anchor="start">un prochain</text><text x="1000.5" y="838.2" font-size="11" fill="#ffffff" font-weight="normal" text-anchor="start">ticket, pas</text><text x="1000.5" y="851.8" font-size="11" fill="#ffffff" font-weight="normal" text-anchor="start">dans la phase</text><text x="1000.5" y="865.2" font-size="11" fill="#ffffff" font-weight="normal" text-anchor="start">en cours</text><circle cx="991.5" cy="744.2" r="10" fill="#123f77" stroke="#1a1a19" stroke-width="2"/><text x="991.5" y="748.2" font-size="11" fill="#ffffff" font-weight="700" text-anchor="middle">15</text><circle cx="37.0" cy="972.5" r="10" fill="#123f77" stroke="#1a1a19" stroke-width="2"/><text x="37.0" y="976.5" font-size="11" fill="#ffffff" font-weight="700" text-anchor="middle">1</text><text x="60.0" y="977.0" font-size="11" fill="#c3c2b7" font-weight="normal" text-anchor="start">1, 2, 3… l'ordre des étapes quand tout se passe bien</text><rect x="379.4" y="965.0" width="26.0" height="15.0" rx="4" fill="#20242c"/><rect x="379.4" y="968.0" width="3" height="9" rx="1.5" fill="#2565bd"/><text x="415.4" y="977.0" font-size="11" fill="#c3c2b7" font-weight="normal" text-anchor="start">l'agent propose : contexte vierge, il ne reçoit que ce qui le concerne ; un second agent qui relit = boucle IA</text><rect x="24.0" y="986.0" width="26.0" height="15.0" rx="4" fill="#1f271f" stroke="#0ca30c" stroke-width="1"/><text x="60.0" y="998.0" font-size="11" fill="#c3c2b7" font-weight="normal" text-anchor="start">la règle prouve = boucle déterministe : test, lint, contrôle ; vert ou rouge, sans discussion</text><rect x="614.0" y="986.0" width="26.0" height="15.0" rx="7" fill="#2a2418" stroke="#fab219" stroke-width="1"/><text x="650.0" y="998.0" font-size="11" fill="#c3c2b7" font-weight="normal" text-anchor="start">l'humain décide : lance, répond, tranche, valide, reprend la main</text><path d="M24,1014.5 L50,1014.5" stroke="#0ca30c" stroke-width="1.6" fill="none" marker-end="url(#arr-implementation-ok)"/><text x="60.0" y="1019.0" font-size="11" fill="#c3c2b7" font-weight="normal" text-anchor="start">ça passe</text><path d="M127.76,1014.5 L153.76,1014.5" stroke="#f07070" stroke-width="1.6" fill="none" stroke-dasharray="5 4" marker-end="url(#arr-implementation-ko)"/><text x="163.8" y="1019.0" font-size="11" fill="#c3c2b7" font-weight="normal" text-anchor="start">pas conforme : le motif repart à l'agent, 3 essais au plus, puis l'humain reprend la main</text><path d="M24,1035.5 L50,1035.5" stroke="#fab219" stroke-width="1.6" fill="none" stroke-dasharray="5 4" marker-end="url(#arr-implementation-amb)"/><text x="60.0" y="1040.0" font-size="11" fill="#c3c2b7" font-weight="normal" text-anchor="start">un « non » ou des retours : l'agent reprend, rien n'est perdu</text><path d="M430.92,1028.0 h16 l10,10 v5 h-26 z" fill="#1a1a19" stroke="#c3c2b7" stroke-width="1.2" stroke-dasharray="4 3"/><path d="M446.92,1028.0 v10 h10" fill="none" stroke="#c3c2b7" stroke-width="1.2"/><text x="466.9" y="1040.0" font-size="11" fill="#c3c2b7" font-weight="normal" text-anchor="start">ce qui entre</text><path d="M557.6,1028.0 L575.6,1028.0 L587.6,1035.5 L575.6,1043.0 L557.6,1043.0 Z" fill="#123f77"/><text x="593.6" y="1040.0" font-size="11" fill="#c3c2b7" font-weight="normal" text-anchor="start">ce qui sort</text><text x="24.0" y="1064.0" font-size="11" fill="#c3c2b7" font-style="italic" text-anchor="start">Un exemple, pas un standard : un déroulé possible parmi d'autres. Chaque équipe compose le sien, avec ses standards, ses outils et ses gardes-fous.</text></svg>
