<svg xmlns="http://www.w3.org/2000/svg" width="920" height="372" viewBox="0 0 920 372" font-family="-apple-system,'Segoe UI',system-ui,Roboto,'Helvetica Neue',Arial,sans-serif"><rect x="0.5" y="0.5" width="919" height="371" rx="12" fill="#fcfcfb" stroke="rgba(11,11,11,0.10)"/><text x="32" y="40" font-size="15.5" fill="#0b0b0b" font-weight="600" text-anchor="start">Coding agentique : 4 stacks au bench</text><text x="32" y="61" font-size="12.5" fill="#52514e" font-weight="normal" text-anchor="start">SWE-bench Verified et prix en sortie ($ / 1M tokens) · tarifs vérifiés le 10/07/2026</text><text x="260" y="98" font-size="12" fill="#52514e" font-weight="600" text-anchor="start">Performance (SWE-bench Verified)</text><text x="610" y="98" font-size="12" fill="#52514e" font-weight="600" text-anchor="start">Prix en sortie / 1M tokens</text><line x1="260.0" y1="114" x2="260.0" y2="298" stroke="#e1e0d9" stroke-width="1"/><text x="260.0" y="316" font-size="11" fill="#898781" font-weight="normal" text-anchor="middle">0</text><line x1="405.0" y1="114" x2="405.0" y2="298" stroke="#e1e0d9" stroke-width="1"/><text x="405.0" y="316" font-size="11" fill="#898781" font-weight="normal" text-anchor="middle">50</text><line x1="550.0" y1="114" x2="550.0" y2="298" stroke="#e1e0d9" stroke-width="1"/><text x="550.0" y="316" font-size="11" fill="#898781" font-weight="normal" text-anchor="middle">100 %</text><line x1="610.0" y1="114" x2="610.0" y2="298" stroke="#e1e0d9" stroke-width="1"/><text x="610.0" y="316" font-size="11" fill="#898781" font-weight="normal" text-anchor="middle">0</text><line x1="708.4" y1="114" x2="708.4" y2="298" stroke="#e1e0d9" stroke-width="1"/><text x="708.4" y="316" font-size="11" fill="#898781" font-weight="normal" text-anchor="middle">10</text><line x1="806.8" y1="114" x2="806.8" y2="298" stroke="#e1e0d9" stroke-width="1"/><text x="806.8" y="316" font-size="11" fill="#898781" font-weight="normal" text-anchor="middle">20 $</text><text x="32" y="130" font-size="12.5" fill="#0b0b0b" font-weight="600" text-anchor="start">Claude Code</text><text x="32" y="146" font-size="11" fill="#898781" font-weight="normal" text-anchor="start">Opus 4.8</text><path d="M260,122 h252.94 a4,4 0 0 1 4,4 v8 a4,4 0 0 1 -4,4 h-252.94  v-16  z" fill="#2a78d6"/><text x="524.94" y="134.5" font-size="11.5" fill="#0b0b0b" font-weight="600" text-anchor="start">88,6 %</text><path d="M610,122 h242.0 a4,4 0 0 1 4,4 v8 a4,4 0 0 1 -4,4 h-242.0  v-16  z" fill="#2a78d6"/><text x="864.0" y="134.5" font-size="11.5" fill="#0b0b0b" font-weight="600" text-anchor="start">25 $</text><text x="32" y="178" font-size="12.5" fill="#0b0b0b" font-weight="600" text-anchor="start">OpenCode</text><text x="32" y="194" font-size="11" fill="#898781" font-weight="normal" text-anchor="start">DeepSeek V4 Pro · OpenRouter</text><path d="M260,170 h229.73999999999998 a4,4 0 0 1 4,4 v8 a4,4 0 0 1 -4,4 h-229.73999999999998  v-16  z" fill="#2a78d6"/><text x="501.74" y="182.5" font-size="11.5" fill="#0b0b0b" font-weight="600" text-anchor="start">80,6 %</text><path d="M610,170 h4.560799999999999 a4,4 0 0 1 4,4 v8 a4,4 0 0 1 -4,4 h-4.560799999999999  v-16  z" fill="#2a78d6"/><text x="626.5608" y="182.5" font-size="11.5" fill="#0b0b0b" font-weight="600" text-anchor="start">0,87 $ (preview)</text><text x="32" y="226" font-size="12.5" fill="#0b0b0b" font-weight="600" text-anchor="start">OpenCode</text><text x="32" y="242" font-size="11" fill="#898781" font-weight="normal" text-anchor="start">Albert · DeepSeek V4 Flash</text><path d="M260,218 h225.10000000000002 a4,4 0 0 1 4,4 v8 a4,4 0 0 1 -4,4 h-225.10000000000002  v-16  z" fill="#2a78d6"/><text x="497.1" y="230.5" font-size="11.5" fill="#0b0b0b" font-weight="600" text-anchor="start">≈79 %</text><text x="612" y="230.5" font-size="11.5" fill="#006300" font-weight="600" text-anchor="start">gratuit (agents État)</text><text x="32" y="274" font-size="12.5" fill="#0b0b0b" font-weight="600" text-anchor="start">OpenCode</text><text x="32" y="290" font-size="11" fill="#898781" font-weight="normal" text-anchor="start">GLM 5.2 · OpenRouter</text><path d="M260,266 h222.20000000000002 a4,4 0 0 1 4,4 v8 a4,4 0 0 1 -4,4 h-222.20000000000002  v-16  z" fill="#2a78d6"/><text x="494.20000000000005" y="278.5" font-size="11.5" fill="#0b0b0b" font-weight="600" text-anchor="start">≈78 %</text><path d="M610,266 h39.29600000000001 a4,4 0 0 1 4,4 v8 a4,4 0 0 1 -4,4 h-39.29600000000001  v-16  z" fill="#2a78d6"/><text x="661.296" y="278.5" font-size="11.5" fill="#0b0b0b" font-weight="600" text-anchor="start">4,40 $</text><text x="32" y="350" font-size="11.5" fill="#52514e" font-weight="normal" text-anchor="start">Lecture : des performances proches (78 à 89 %) pour des prix en sortie de 0 à 25 $ par million de tokens</text></svg>